<svg width="107" height="86" viewBox="0 0 107 86" fill="none" xmlns="http://www.w3.org/2000/svg">
<g filter="url(#filter0_d_2478_1344)">
<rect width="64.347" height="60.2402" rx="15" transform="matrix(0.887506 0.460796 -0.442115 0.896958 27.6328 1)" fill="#E2BB43"/>
</g>
<g filter="url(#filter1_b_2478_1344)">
<rect x="43" y="24.6064" width="64" height="60.5535" rx="15" fill="url(#paint0_radial_2478_1344)"/>
</g>
<path d="M94.6333 70.2309H91.9V50.8473C91.9 50.1129 91.612 49.4085 91.0994 48.8892C90.5868 48.3699 89.8916 48.0782 89.1667 48.0782H78.2333V39.7709C78.2337 39.2695 78.0996 38.7773 77.8454 38.3471C77.5912 37.9168 77.2265 37.5645 76.7901 37.3278C76.3537 37.0912 75.8621 36.979 75.3677 37.0032C74.8733 37.0275 74.3947 37.1873 73.983 37.4656L60.3163 46.6936C59.9414 46.947 59.6342 47.2904 59.422 47.6932C59.2097 48.096 59.0991 48.5458 59.1 49.0024V70.2309H56.3667C56.0042 70.2309 55.6566 70.3768 55.4003 70.6364C55.144 70.8961 55 71.2482 55 71.6155C55 71.9827 55.144 72.3348 55.4003 72.5945C55.6566 72.8541 56.0042 73 56.3667 73H94.6333C94.9958 73 95.3434 72.8541 95.5997 72.5945C95.856 72.3348 96 71.9827 96 71.6155C96 71.2482 95.856 70.8961 95.5997 70.6364C95.3434 70.3768 94.9958 70.2309 94.6333 70.2309ZM89.1667 50.8473V70.2309H78.2333V50.8473H89.1667ZM61.8333 49.0024L75.5 39.7709V70.2309H61.8333V49.0024ZM72.7667 53.6164V56.3854C72.7667 56.7527 72.6227 57.1048 72.3664 57.3645C72.1101 57.6241 71.7625 57.77 71.4 57.77C71.0375 57.77 70.6899 57.6241 70.4336 57.3645C70.1773 57.1048 70.0333 56.7527 70.0333 56.3854V53.6164C70.0333 53.2491 70.1773 52.897 70.4336 52.6373C70.6899 52.3777 71.0375 52.2318 71.4 52.2318C71.7625 52.2318 72.1101 52.3777 72.3664 52.6373C72.6227 52.897 72.7667 53.2491 72.7667 53.6164ZM67.3 53.6164V56.3854C67.3 56.7527 67.156 57.1048 66.8997 57.3645C66.6434 57.6241 66.2958 57.77 65.9333 57.77C65.5709 57.77 65.2233 57.6241 64.967 57.3645C64.7107 57.1048 64.5667 56.7527 64.5667 56.3854V53.6164C64.5667 53.2491 64.7107 52.897 64.967 52.6373C65.2233 52.3777 65.5709 52.2318 65.9333 52.2318C66.2958 52.2318 66.6434 52.3777 66.8997 52.6373C67.156 52.897 67.3 53.2491 67.3 53.6164ZM67.3 63.3082V66.0773C67.3 66.4445 67.156 66.7966 66.8997 67.0563C66.6434 67.3159 66.2958 67.4618 65.9333 67.4618C65.5709 67.4618 65.2233 67.3159 64.967 67.0563C64.7107 66.7966 64.5667 66.4445 64.5667 66.0773V63.3082C64.5667 62.941 64.7107 62.5888 64.967 62.3292C65.2233 62.0695 65.5709 61.9236 65.9333 61.9236C66.2958 61.9236 66.6434 62.0695 66.8997 62.3292C67.156 62.5888 67.3 62.941 67.3 63.3082ZM72.7667 63.3082V66.0773C72.7667 66.4445 72.6227 66.7966 72.3664 67.0563C72.1101 67.3159 71.7625 67.4618 71.4 67.4618C71.0375 67.4618 70.6899 67.3159 70.4336 67.0563C70.1773 66.7966 70.0333 66.4445 70.0333 66.0773V63.3082C70.0333 62.941 70.1773 62.5888 70.4336 62.3292C70.6899 62.0695 71.0375 61.9236 71.4 61.9236C71.7625 61.9236 72.1101 62.0695 72.3664 62.3292C72.6227 62.5888 72.7667 62.941 72.7667 63.3082Z" fill="white"/>
<defs>
<filter id="filter0_d_2478_1344" x="0.501719" y="0.659922" width="84.7348" height="84.3638" filterUnits="userSpaceOnUse" color-interpolation-filters="sRGB">
<feFlood flood-opacity="0" result="BackgroundImageFix"/>
<feColorMatrix in="SourceAlpha" type="matrix" values="0 0 0 0 0 0 0 0 0 0 0 0 0 0 0 0 0 0 127 0" result="hardAlpha"/>
<feOffset/>
<feGaussianBlur stdDeviation="2.88"/>
<feColorMatrix type="matrix" values="0 0 0 0 0.886275 0 0 0 0 0.733333 0 0 0 0 0.262745 0 0 0 1 0"/>
<feBlend mode="normal" in2="BackgroundImageFix" result="effect1_dropShadow_2478_1344"/>
<feBlend mode="normal" in="SourceGraphic" in2="effect1_dropShadow_2478_1344" result="shape"/>
</filter>
<filter id="filter1_b_2478_1344" x="1" y="-17.3936" width="148" height="144.554" filterUnits="userSpaceOnUse" color-interpolation-filters="sRGB">
<feFlood flood-opacity="0" result="BackgroundImageFix"/>
<feGaussianBlur in="BackgroundImageFix" stdDeviation="21"/>
<feComposite in2="SourceAlpha" operator="in" result="effect1_backgroundBlur_2478_1344"/>
<feBlend mode="normal" in="SourceGraphic" in2="effect1_backgroundBlur_2478_1344" result="shape"/>
</filter>
<radialGradient id="paint0_radial_2478_1344" cx="0" cy="0" r="1" gradientUnits="userSpaceOnUse" gradientTransform="translate(43.5757 26.408) rotate(42.4914) scale(84.6814 134.987)">
<stop stop-color="white" stop-opacity="0.4"/>
<stop offset="1" stop-color="#B8901A"/>
</radialGradient>
</defs>
</svg>
