<svg width="107" height="83" viewBox="0 0 107 83" fill="none" xmlns="http://www.w3.org/2000/svg">
<g filter="url(#filter0_d_2065_4163)">
<rect x="27.6328" y="1" width="64" height="59" rx="15" transform="rotate(26.8341 27.6328 1)" fill="#E2BB43"/>
</g>
<g filter="url(#filter1_b_2065_4163)">
<rect x="43" y="24" width="64" height="59" rx="15" fill="url(#paint0_radial_2065_4163)"/>
</g>
<path d="M84.4361 54.3036L76.6443 51.2644L73.7741 43.0333C73.6041 42.5459 73.2966 42.1253 72.893 41.8282C72.4894 41.531 72.0092 41.3717 71.5172 41.3717C71.0252 41.3717 70.545 41.531 70.1414 41.8282C69.7378 42.1253 69.4303 42.5459 69.2603 43.0333L66.372 51.2644L58.5742 54.294C58.1124 54.4734 57.7139 54.798 57.4324 55.224C57.1509 55.65 57 56.1569 57 56.6763C57 57.1957 57.1509 57.7025 57.4324 58.1285C57.7139 58.5545 58.1124 58.8791 58.5742 59.0585L66.372 62.1073L69.2422 70.3384C69.4122 70.8258 69.7197 71.2464 70.1233 71.5436C70.5268 71.8407 71.007 72 71.4991 72C71.9911 72 72.4713 71.8407 72.8749 71.5436C73.2785 71.2464 73.586 70.8258 73.7559 70.3384L76.6443 62.1073L84.4421 59.0777C84.9039 58.8983 85.3024 58.5737 85.5839 58.1477C85.8653 57.7217 86.0163 57.2148 86.0163 56.6954C86.0163 56.176 85.8653 55.6692 85.5839 55.2432C85.3024 54.8172 84.9039 54.4926 84.4421 54.3132L84.4361 54.3036ZM75.2847 59.91C75.1207 59.9738 74.9717 60.0745 74.8481 60.205C74.7244 60.3354 74.6291 60.4927 74.5687 60.6658L71.5081 69.4183L68.4537 60.6722C68.3933 60.4972 68.2974 60.3383 68.1726 60.2067C68.0479 60.075 67.8973 59.9737 67.7316 59.91L59.4458 56.6859L67.7316 53.4617C67.8973 53.398 68.0479 53.2967 68.1726 53.165C68.2974 53.0334 68.3933 52.8745 68.4537 52.6995L71.5081 43.9534L74.5626 52.6995C74.6231 52.8726 74.7184 53.0299 74.842 53.1604C74.9656 53.2909 75.1146 53.3915 75.2787 53.4553L83.5705 56.6859L75.2847 59.91ZM76.3421 40.1026C76.3421 39.7642 76.4695 39.4398 76.6961 39.2005C76.9227 38.9613 77.2301 38.8269 77.5506 38.8269H79.9676V36.2756C79.9676 35.9373 80.095 35.6129 80.3216 35.3736C80.5482 35.1344 80.8556 35 81.1761 35C81.4966 35 81.804 35.1344 82.0307 35.3736C82.2573 35.6129 82.3846 35.9373 82.3846 36.2756V38.8269H84.8016C85.1221 38.8269 85.4295 38.9613 85.6562 39.2005C85.8828 39.4398 86.0101 39.7642 86.0101 40.1026C86.0101 40.4409 85.8828 40.7653 85.6562 41.0046C85.4295 41.2438 85.1221 41.3782 84.8016 41.3782H82.3846V43.9295C82.3846 44.2678 82.2573 44.5923 82.0307 44.8315C81.804 45.0707 81.4966 45.2051 81.1761 45.2051C80.8556 45.2051 80.5482 45.0707 80.3216 44.8315C80.095 44.5923 79.9676 44.2678 79.9676 43.9295V41.3782H77.5506C77.2301 41.3782 76.9227 41.2438 76.6961 41.0046C76.4695 40.7653 76.3421 40.4409 76.3421 40.1026ZM92.0526 47.7564C92.0526 48.0947 91.9253 48.4192 91.6987 48.6584C91.472 48.8976 91.1646 49.032 90.8441 49.032H89.6356V50.3077C89.6356 50.646 89.5083 50.9704 89.2817 51.2097C89.055 51.4489 88.7476 51.5833 88.4271 51.5833C88.1066 51.5833 87.7992 51.4489 87.5726 51.2097C87.346 50.9704 87.2186 50.646 87.2186 50.3077V49.032H86.0101C85.6896 49.032 85.3822 48.8976 85.1556 48.6584C84.929 48.4192 84.8016 48.0947 84.8016 47.7564C84.8016 47.4181 84.929 47.0936 85.1556 46.8544C85.3822 46.6151 85.6896 46.4807 86.0101 46.4807H87.2186V45.2051C87.2186 44.8668 87.346 44.5423 87.5726 44.3031C87.7992 44.0639 88.1066 43.9295 88.4271 43.9295C88.7476 43.9295 89.055 44.0639 89.2817 44.3031C89.5083 44.5423 89.6356 44.8668 89.6356 45.2051V46.4807H90.8441C91.1646 46.4807 91.472 46.6151 91.6987 46.8544C91.9253 47.0936 92.0526 47.4181 92.0526 47.7564Z" fill="white"/>
<defs>
<filter id="filter0_d_2065_4163" x="0.555429" y="0.554453" width="84.6304" height="82.4263" filterUnits="userSpaceOnUse" color-interpolation-filters="sRGB">
<feFlood flood-opacity="0" result="BackgroundImageFix"/>
<feColorMatrix in="SourceAlpha" type="matrix" values="0 0 0 0 0 0 0 0 0 0 0 0 0 0 0 0 0 0 127 0" result="hardAlpha"/>
<feOffset/>
<feGaussianBlur stdDeviation="2.88"/>
<feColorMatrix type="matrix" values="0 0 0 0 0.886275 0 0 0 0 0.733333 0 0 0 0 0.262745 0 0 0 1 0"/>
<feBlend mode="normal" in2="BackgroundImageFix" result="effect1_dropShadow_2065_4163"/>
<feBlend mode="normal" in="SourceGraphic" in2="effect1_dropShadow_2065_4163" result="shape"/>
</filter>
<filter id="filter1_b_2065_4163" x="1" y="-18" width="148" height="143" filterUnits="userSpaceOnUse" color-interpolation-filters="sRGB">
<feFlood flood-opacity="0" result="BackgroundImageFix"/>
<feGaussianBlur in="BackgroundImageFix" stdDeviation="21"/>
<feComposite in2="SourceAlpha" operator="in" result="effect1_backgroundBlur_2065_4163"/>
<feBlend mode="normal" in="SourceGraphic" in2="effect1_backgroundBlur_2065_4163" result="shape"/>
</filter>
<radialGradient id="paint0_radial_2065_4163" cx="0" cy="0" r="1" gradientUnits="userSpaceOnUse" gradientTransform="translate(43.5757 25.7554) rotate(41.7506) scale(83.6972 133.071)">
<stop stop-color="white" stop-opacity="0.4"/>
<stop offset="1" stop-color="#B8901A"/>
</radialGradient>
</defs>
</svg>
